# xmcd
# 
# Track frame offsets:
#     150
#     12165
#     32942
#     50811
#     69106
#     86984
#     109297
#     130134
#     141863
#     158741
# 
# Disc length: 2434
# 
# Revision: 4
# Processed by: cddbd v1.5.2PL0 Copyright (c) Steve Scherf et al.
# Submitted via: fre:ac v1.0.17
# 
DISCID=8909800a
DTITLE=Dodge - Offline
DYEAR=2000
DGENRE=Acid Jazz
TTITLE0=Freedom Jazz Dance
TTITLE1=Raga
TTITLE2=The Bird
TTITLE3=Four Square
TTITLE4=It's Your Thing
TTITLE5=Soul Power
TTITLE6=Russ
TTITLE7=Scratch
TTITLE8=Wapskalion
TTITLE9=Offline
EXTD=YEAR: 2000
EXTT0=
EXTT1=
EXTT2=
EXTT3=
EXTT4=
EXTT5=
EXTT6=
EXTT7=
EXTT8=
EXTT9=
PLAYORDER=
